<svg xmlns="http://www.w3.org/2000/svg" width="65" height="65" viewBox="0 0 65 65">
  <g id="grow-button" transform="translate(-192 -464)">
    <g id="Polygon_1" data-name="Polygon 1" transform="translate(239.402 481.5) rotate(90)" fill="#fff">
      <path d="M 26.32957077026367 21.75000190734863 L 3.670430898666382 21.75000190734863 C 3.41205096244812 21.75000190734863 3.284451007843018 21.58663177490234 3.231380939483643 21.48924255371094 C 3.17832088470459 21.3918514251709 3.11021089553833 21.19605255126953 3.250290870666504 20.97893142700195 L 14.5798511505127 3.418112277984619 C 14.70836067199707 3.218912124633789 14.89824104309082 3.189172267913818 15.00000095367432 3.189172267913818 C 15.10175132751465 3.189172267913818 15.29163074493408 3.218912124633789 15.42014122009277 3.418112277984619 L 26.74972152709961 20.97893142700195 C 26.88979148864746 21.19605255126953 26.82168006896973 21.3918514251709 26.76862144470215 21.48924255371094 C 26.71555137634277 21.58663177490234 26.58795166015625 21.75000190734863 26.32957077026367 21.75000190734863 Z" stroke="none"/>
      <path d="M 15.00000095367432 5.53376579284668 L 5.505641937255859 20.25000190734863 L 24.49435424804688 20.25000190734863 L 15.00000095367432 5.53376579284668 M 14.99999713897705 1.689172744750977 C 15.64335823059082 1.689172744750977 16.28672027587891 1.994422912597656 16.68059158325195 2.604921340942383 L 28.01016044616699 20.16574287414551 C 28.8687801361084 21.49661254882812 27.91337013244629 23.25000190734863 26.32957077026367 23.25000190734863 L 3.670431137084961 23.25000190734863 C 2.086631774902344 23.25000190734863 1.131221771240234 21.49661254882812 1.989841461181641 20.16574287414551 L 13.31941032409668 2.604921340942383 C 13.71327590942383 1.994422912597656 14.35663604736328 1.689172744750977 14.99999713897705 1.689172744750977 Z" stroke="none" fill="#fff"/>
    </g>
    <g id="Ellipse_3" data-name="Ellipse 3" transform="translate(192 464)" fill="none" stroke="#fff" stroke-width="3">
      <circle cx="32.5" cy="32.5" r="32.5" stroke="none"/>
      <circle cx="32.5" cy="32.5" r="31" fill="none"/>
    </g>
  </g>
</svg>
